<svg width="100" height="100" viewBox="0 0 100 100" fill="none" xmlns="http://www.w3.org/2000/svg">
<path d="M38.6765 52.5027C38.1526 51.8478 38.0216 48.2458 38.1089 47.3071C38.9385 38.2039 51.142 33.7068 57.3857 40.5397C60.7695 44.2509 61.4899 47.5254 60.3329 52.4154C60.2674 52.6992 60.3765 53.0703 60.2892 53.3978C60.2019 53.7252 59.547 54.1182 59.3068 54.4456C58.4554 55.6026 57.8005 56.6942 56.6434 57.6329C54.3949 59.4229 52.5392 59.7941 49.7667 59.925C49.461 59.925 49.1772 60.2088 48.7406 60.187C45.6843 59.9469 41.0998 57.4364 39.7244 54.6421C39.4406 54.0745 39.5061 53.0267 39.3096 52.7647C39.1786 52.5682 38.7857 52.59 38.6984 52.4809L38.6765 52.5027ZM47.9547 38.2475L47.3216 38.8806L47.8237 39.3827L48.4568 38.7496L47.9547 38.2475ZM51.8625 42.8974C51.7096 42.7446 49.6357 42.3516 49.2209 42.3298C47.2343 42.177 44.6582 44.1417 43.8505 45.91C43.1955 47.3071 42.9991 49.5775 43.5885 51.0183C44.0688 52.1971 44.7892 51.8697 44.9857 52.0443C45.0512 52.1098 44.8984 52.721 45.2477 53.1795C46.5794 55.0132 49.9195 55.2097 51.8843 54.4456C54.3949 53.4633 56.0103 50.4943 55.7047 47.831C55.6392 47.1761 55.0279 45.3205 54.4385 45.0149C53.7836 44.6875 52.823 44.491 52.1899 43.8361C51.9934 43.6396 52.0153 43.072 51.8406 42.8974H51.8625ZM57.0146 46.674C56.6216 47.067 57.7787 47.7655 57.7787 47.067C57.7787 46.9142 57.1674 46.543 57.0146 46.674ZM57.5167 47.7001C57.0146 47.1761 56.0758 48.5514 56.4906 48.9662C56.5343 49.0099 57.473 49.0099 57.5167 48.9662C57.5604 48.9226 57.5604 47.7437 57.5167 47.6782V47.7001Z" fill="white"/>
</svg>
