<svg width="100" height="100" viewBox="0 0 100 100" fill="none" xmlns="http://www.w3.org/2000/svg">
<path d="M16.6703 17.6123C16.6703 17.6123 16.6921 17.9397 16.8231 18.0707C17.2815 18.6165 17.9365 18.8784 17.6963 19.708C17.5653 20.1446 16.4738 20.7777 16.2336 21.3016C13.9196 26.3881 10.9287 31.2126 8.92026 36.43C8.59279 37.3032 7.45758 40.0757 7.30477 40.6869C7.15195 41.4073 7.32659 42.1932 7.26109 42.9355C7.08645 44.4417 5.97307 49.5282 6.27871 50.5542C6.3442 50.8162 6.6935 50.9472 6.75899 51.362C7.28293 55.0949 7.80688 58.5878 8.85477 62.2553C10.1428 66.7742 12.6752 70.9874 15.0548 74.9387C15.7534 76.1176 18.0674 76.8598 17.1069 78.759C17.0414 78.89 15.0766 80.8547 14.9456 80.9202C13.4611 81.6625 12.9808 79.5231 11.8674 78.8682C11.5181 78.6499 11.2125 79.1301 10.8414 78.89C8.4618 77.4492 4.07378 69.11 3.2442 66.3157C1.47589 60.2469 -0.46708 50.1395 0.100526 43.9396C0.166019 43.2629 0.537142 42.9355 0.624466 42.4115C0.733621 41.6911 0.558973 40.8834 0.624466 40.1193C1.25757 33.8104 4.20476 29.357 7.28293 24.0959C8.11251 22.6987 8.68011 21.3016 9.77166 19.9699C10.5576 19.0312 11.9984 17.7214 13.221 17.5686C14.0724 17.4595 14.6618 17.7214 15.2949 17.7651C15.6224 17.7651 16.4301 17.3503 16.6266 17.5904L16.6703 17.6123Z" fill="white"/>
<path d="M83.2314 87.4338C82.7729 87.8922 80.4807 89.857 79.9567 90.1407C79.5419 90.3591 79.018 90.3809 78.625 90.5774C73.0581 93.328 66.3997 97.5849 60.1997 98.4144C59.5447 98.5018 58.8461 98.349 58.1694 98.4144C57.2961 98.5236 56.2264 99.0694 55.3532 99.1567C54.3708 99.2658 53.2792 99.0912 52.2968 99.1567C51.4673 99.2222 50.3102 99.5933 49.4806 99.6588C46.7081 99.8771 44.3067 98.4799 41.5996 98.3708C40.3334 97.9123 38.7834 97.9342 37.5391 97.5849C37.0151 97.4321 37.2116 96.7335 36.9933 96.3406C36.8841 96.1441 36.5785 95.9913 36.4038 95.6638C36.1637 95.1836 36.0982 93.9611 35.4433 93.8082C35.2905 93.7864 34.2426 94.2885 34.0679 94.4195C33.6531 94.7688 33.6095 95.511 33.5658 95.5765C33.3693 95.773 32.9764 94.8124 32.8017 94.6815C32.1905 94.2449 30.575 93.9829 29.8109 93.5899C29.0468 93.197 27.475 92.4329 26.8419 92.0182C26.2088 91.6034 26.4489 91.4724 25.1391 90.8612C23.6764 90.1844 20.882 88.2415 19.6595 87.15C18.6989 86.2986 18.3933 85.7965 18.2623 84.4649C18.0658 82.3473 18.6553 81.0812 20.6419 80.2734C21.8644 81.3431 23.2398 82.2818 24.506 83.3079C24.9644 83.679 25.3355 84.2247 25.7722 84.5958C29.1778 87.3465 34.1334 89.4422 38.325 90.9048C41.8834 92.1491 46.5553 92.9787 50.2447 93.2625C51.9257 93.3935 53.0391 92.7386 54.6109 92.4984C56.8377 92.1491 59.8067 92.0618 61.968 91.4287C62.2299 91.3414 62.4483 90.9266 62.8194 90.752C63.8891 90.2062 65.6574 89.7915 66.9018 89.2239C70.7659 87.4556 75.0666 85.4036 78.3194 82.7839C79.4328 81.9107 80.3715 81.2121 81.7469 82.1508C82.0307 82.3473 84.2356 84.5522 84.2792 84.7268C84.4539 85.3599 83.7335 85.6219 83.4715 86.1895C83.3187 86.4951 83.4933 87.0627 83.2314 87.3465V87.4338ZM67.7095 90.7957C67.2729 90.3591 65.9194 91.2978 66.4433 91.8217C66.5961 91.9745 67.5567 91.9745 67.7095 91.8217C67.7314 91.778 67.7532 90.8393 67.7095 90.7957ZM61.3349 93.0878C61.3349 93.0878 61.706 93.1533 61.968 93.328C62.1426 93.459 62.2518 93.7428 62.5137 93.8082C64.1074 94.2885 64.7842 92.2146 63.518 92.04C63.1687 91.9963 62.3391 91.9963 62.0116 92.0836C61.706 92.171 61.1166 92.9132 61.3349 93.066V93.0878Z" fill="white"/>
<path d="M81.9669 10.2395C82.0979 10.3924 81.9014 11.6367 82.0324 12.0951C82.2725 12.9028 83.5169 12.619 82.5127 13.9289C81.9014 14.7366 80.3077 16.2647 79.3035 16.352C78.2993 16.4394 78.0155 15.2387 77.4042 14.9331C77.0113 14.7366 76.662 14.8676 76.2908 14.7803C75.3521 14.4965 72.8197 12.75 71.5317 12.1388C69.4141 11.1128 67.1655 9.82477 64.9824 9.01704C60.1141 7.20513 53.8486 6.50656 48.7183 6.13544C46.4697 5.98263 46.0549 6.87767 44.3084 7.1178C38.4359 7.92553 35.576 8.73325 30.2929 11.462C27.5422 12.881 25.3809 13.9289 22.5647 15.2169C22.1281 15.4133 20.0542 17.0288 19.7485 16.614C19.7267 16.5703 19.7485 16.1337 19.6176 15.8499C19.2683 15.1732 17.5 14.1472 17.4345 13.4268C17.369 12.7719 18.4605 11.8113 18.9845 11.3966C23.438 7.83821 30.9478 3.34116 36.4929 2.14049C36.9295 2.05317 37.3443 2.14049 37.6936 2.075C40.4443 1.50741 44.1774 0.503214 46.8626 0.284911C49.0894 0.110268 51.5127 0.394062 53.7831 0.284911C54.307 0.284911 54.7218 -0.0207142 55.3112 0.00111618C56.4246 0.0447768 57.669 0.808839 58.6732 0.983481C62.7993 1.72571 65.9429 3.0137 69.8944 4.30169C70.9422 4.65098 72.4049 4.76013 73.3437 5.17491C76.3563 6.48473 78.9106 8.03468 81.443 10.0867C81.574 10.1959 81.8359 10.1741 81.9014 10.2395H81.9669Z" fill="white"/>
<path d="M87.5549 16.3725C87.9697 17.2021 88.6902 17.9661 89.0831 18.7957C89.6071 19.909 91.3972 23.511 91.6373 24.3843C91.7902 24.9518 91.5064 26.5018 92.3359 26.7419C93.3183 27.0257 93.3838 26.4145 94.3444 27.5497C95.8071 29.2743 97.4662 34.8192 98.012 37.155C98.9289 41.2591 100.457 48.6378 99.8676 52.6545C99.8021 53.0911 99.1909 57.2389 99.0817 58.767C99.0381 59.5529 99.2564 60.9064 99.0817 61.5613C98.9507 62.0634 97.0514 62.2381 96.6803 62.9803C96.2 63.919 97.0078 66.364 96.8113 67.6956C96.7458 68.1104 96.069 69.5294 95.8507 70.0533C95.0211 71.9307 93.2528 75.1398 91.9648 76.6242C91.419 77.2573 90.7859 77.6939 90.3275 78.2833C89.9127 78.8291 89.2141 80.5319 88.5373 80.5974C87.9261 80.641 87.5549 80.1608 87.0092 80.0734C85.6993 79.877 84.7606 80.8593 83.931 79.5713C83.6254 79.0692 84.8261 77.8686 85.1317 77.1918C85.9176 75.4891 86.4416 73.4152 87.3366 71.7342C87.7733 70.9047 90.3493 67.6738 90.4148 67.4118C90.524 67.0407 90.4148 66.6041 90.4803 66.2112C90.8951 64.4429 91.5718 62.3035 92.0303 60.3606C92.5324 58.2213 93.362 56.453 93.5148 54.1827C93.6021 52.9383 93.5803 51.3229 93.5148 50.0786C93.4057 47.6991 92.9254 45.5597 92.7289 43.202C92.6634 42.3943 92.8162 41.4774 92.7289 40.6479C92.3359 37.1332 89.1704 30.5186 87.3366 27.4187C86.4852 25.956 84.4549 23.9258 84.1057 22.485C83.9965 22.0921 84.1056 21.6555 84.0183 21.3062C83.8218 20.5858 82.7739 20.7823 83.0359 18.9703C83.2106 17.7042 84.8916 17.2021 85.5683 16.1542C86.1796 15.8486 86.9873 16.0451 87.5549 16.3289V16.3725Z" fill="white"/>
</svg>
